<svg xmlns="http://www.w3.org/2000/svg" version="1.1" xmlns:xlink="http://www.w3.org/1999/xlink" xmlns:svgjs="http://svgjs.dev/svgjs" width="1500" height="1500" viewBox="0 0 1500 1500"><rect width="1500" height="1500" fill="#0c1d36"></rect><g transform="matrix(0.6666666666666666,0,0,0.6666666666666666,249.39393939393938,438.58569500674764)"><svg viewBox="0 0 396 247" data-background-color="#0c1d36" preserveAspectRatio="xMidYMid meet" height="935" width="1500" xmlns="http://www.w3.org/2000/svg" xmlns:xlink="http://www.w3.org/1999/xlink"><g id="tight-bounds" transform="matrix(1,0,0,1,0.2400000000000091,-0.09999999999999432)"><svg viewBox="0 0 395.52 247.2" height="247.2" width="395.52"><g><svg></svg></g><g><svg viewBox="0 0 395.52 247.2" height="247.2" width="395.52"><g><path d="M55.039 247.2l30.18-52.273 5.026 0-27.528 47.681h270.086l-27.528-47.681 5.026 0 30.18 52.273zM197.76 0l30.18 52.273-5.027 0-25.153-43.567-25.153 43.567-5.027 0z" fill="#f9cc0b" fill-rule="nonzero" stroke="none" stroke-width="1" stroke-linecap="butt" stroke-linejoin="miter" stroke-miterlimit="10" stroke-dasharray="" stroke-dashoffset="0" font-family="none" font-weight="none" font-size="none" text-anchor="none" style="mix-blend-mode: normal" data-fill-palette-color="tertiary"></path></g><g transform="matrix(1,0,0,1,0,72.65209281052142)"><svg viewBox="0 0 395.52 101.89581437895714" height="101.89581437895714" width="395.52"><g><svg viewBox="0 0 566.3497368523613 145.90581426951715" height="101.89581437895714" width="395.52"><g transform="matrix(1,0,0,1,0,20.164985908449914)"><svg viewBox="0 0 395.52 105.57584245261732" height="105.57584245261732" width="395.52"><g id="textblocktransform"><svg viewBox="0 0 395.52 105.57584245261732" height="105.57584245261732" width="395.52" id="textblock"><g><svg viewBox="0 0 395.52 105.57584245261732" height="105.57584245261732" width="395.52"><g transform="matrix(1,0,0,1,0,0)"><svg width="395.52" viewBox="-0.49 -37.11 148.77 39.71666666666667" height="105.57584245261732" data-palette-color="#f9cc0b"><path d="M4.98-0.63L4.64-0.78Q4.49-0.68 4.35-0.59 4.2-0.49 4.05-0.39L4.05-0.39Q3.52-0.1 3.08-0.07 2.64-0.05 2.1 0.44L2.1 0.44Q1.9 0.2 1.81 0.2 1.71 0.2 1.46 0.2L1.46 0.2Q0.83 0.2 0.73-0.15L0.73-0.15Q0.54-0.1 0.12 0.1-0.29 0.29-0.49 0.39L-0.49 0.39Q-0.05-0.24 0.1-0.59 0.24-0.93 0.27-1.22 0.29-1.51 0.32-1.83 0.34-2.15 0.54-2.73L0.54-2.73Q0.63-2.93 0.68-3.13 0.73-3.32 0.83-3.56L0.83-3.56Q1.07-4.3 1.25-5.22 1.42-6.15 1.81-6.84L1.81-6.84Q1.81-7.67 2.17-8.4 2.54-9.13 2.78-9.91L2.78-9.91Q2.88-10.21 3.05-10.5 3.22-10.79 3.32-11.08L3.32-11.08Q3.52-11.57 3.64-12.04 3.76-12.5 3.91-12.94L3.91-12.94Q4.3-14.36 4.69-15.75 5.08-17.14 5.42-18.55L5.42-18.55Q5.47-18.8 5.54-19.09 5.62-19.38 5.71-19.63L5.71-19.63Q5.96-20.36 6.03-21.12 6.1-21.88 6.49-22.56L6.49-22.56Q6.45-22.9 6.52-23.19 6.59-23.49 6.69-23.83 6.79-24.17 6.88-24.46 6.98-24.76 7.03-24.9L7.03-24.9Q7.28-25.54 7.4-26.05 7.52-26.56 7.91-27.15L7.91-27.15Q7.91-27.15 8.06-27.66 8.2-28.17 8.4-28.81 8.59-29.44 8.74-30 8.89-30.57 8.89-30.66L8.89-30.66Q8.98-31.05 9.06-31.4 9.13-31.74 9.23-32.13L9.23-32.13Q9.33-32.37 9.42-32.54 9.52-32.71 9.62-32.96L9.62-32.96Q9.77-33.5 9.91-34.28 10.06-35.06 10.3-35.5L10.3-35.5Q10.45-35.84 10.86-36.06 11.28-36.28 11.57-36.52L11.57-36.52Q12.45-36.43 12.87-36.62 13.28-36.82 13.67-37.11L13.67-37.11Q13.92-37.06 14.14-36.99 14.36-36.91 14.6-36.91L14.6-36.91Q15.53-35.89 15.89-34.81 16.26-33.74 16.6-32.67L16.6-32.67Q16.75-32.13 16.89-31.62 17.04-31.1 17.24-30.62L17.24-30.62Q17.29-30.47 17.38-30.3 17.48-30.13 17.58-29.93L17.58-29.93Q17.82-29.54 17.99-29.1 18.16-28.66 18.31-28.22L18.31-28.22Q18.6-27.88 18.75-27.42 18.9-26.95 19.02-26.49 19.14-26.03 19.29-25.61 19.43-25.2 19.73-24.9L19.73-24.9Q19.82-24.37 20.07-23.85 20.31-23.34 20.41-22.75L20.41-22.75Q20.7-22.36 21.09-21.26 21.48-20.17 21.88-18.9 22.27-17.63 22.61-16.46 22.95-15.28 23.1-14.79L23.1-14.79Q23.19-14.4 23.49-13.79 23.78-13.18 24.02-12.7L24.02-12.7Q24.22-12.16 24.44-11.57 24.66-10.99 24.8-10.45L24.8-10.45Q24.9-9.91 25.02-9.42 25.15-8.94 25.29-8.4L25.29-8.4Q25.39-8.06 25.59-7.79 25.78-7.52 25.88-7.13L25.88-7.13Q26.07-6.74 26.15-6.4 26.22-6.05 26.46-5.66L26.46-5.66Q26.42-5.13 26.51-4.98 26.61-4.83 26.71-4.64L26.71-4.64Q26.9-3.61 27.15-3 27.39-2.39 27.39-1.71L27.39-1.71Q27.39-1.12 27.17-0.98 26.95-0.83 26.61-0.49L26.61-0.49Q26.22-0.15 25.95 0.05 25.68 0.24 25.15 0.24L25.15 0.24Q24.56 0.2 24.44 0.42 24.32 0.63 24.27 0.73L24.27 0.73Q23.68 0.68 23.51 0.71 23.34 0.73 23.17 0.73 23 0.73 22.83 0.81 22.66 0.88 22.46 1.12L22.46 1.12Q22.12 0.73 21.8 0.42 21.48 0.1 21.24-0.29L21.24-0.29Q21.24-1.12 21.02-2.25 20.8-3.37 20.56-4L20.56-4Q20.07-5.27 19.65-6.49 19.24-7.71 18.85-8.98L18.85-8.98Q18.7-9.52 18.53-9.96 18.36-10.4 18.16-10.89L18.16-10.89Q18.26-10.5 18.24-10.08 18.21-9.67 17.97-9.28L17.97-9.28Q17.87-9.18 17.68-9.03 17.48-8.89 17.48-8.79L17.48-8.79Q16.89-8.3 16.46-7.86L16.46-7.86Q16.5-6.98 16.21-6.64 15.92-6.3 15.58-6.01L15.58-6.01Q14.75-5.96 14.55-6.1 14.36-6.25 14.01-6.3L14.01-6.3Q13.82-6.35 13.62-6.32 13.43-6.3 13.23-6.3L13.23-6.3Q12.84-6.3 12.5-6.49L12.5-6.49Q12.35-6.59 12.28-6.69 12.21-6.79 12.11-6.88L12.11-6.88Q11.72-7.28 11.21-7.54 10.69-7.81 10.21-8.01L10.21-8.01Q9.81-8.35 9.4-8.72 8.98-9.08 8.54-9.33L8.54-9.33Q8.15-8.4 7.93-7.69 7.71-6.98 7.42-6.3L7.42-6.3Q6.88-4.64 6.54-3.39 6.2-2.15 5.76-0.88L5.76-0.88Q5.57-0.83 5.4-0.73 5.22-0.63 4.98-0.63L4.98-0.63ZM9.23-11.18L9.42-11.18Q9.81-11.87 10.13-11.94 10.45-12.01 10.69-12.3L10.69-12.3Q10.79-12.4 10.91-12.55 11.04-12.7 11.18-12.84L11.18-12.84Q11.33-12.94 11.52-13.04 11.72-13.13 11.87-13.28L11.87-13.28Q12.26-13.62 12.52-13.87 12.79-14.11 13.33-14.11L13.33-14.11Q14.16-14.11 14.7-13.7 15.23-13.28 16.02-13.13L16.02-13.13Q16.11-12.84 16.65-12.72 17.19-12.6 17.48-12.4L17.48-12.4Q16.99-13.62 16.72-14.87 16.46-16.11 16.06-17.33L16.06-17.33Q15.77-18.41 15.38-19.46 14.99-20.51 14.6-21.48L14.6-21.48Q14.26-22.46 14.01-23.39 13.77-24.32 13.38-25.2L13.38-25.2Q12.99-24.32 12.6-23.05 12.21-21.78 12.01-20.8L12.01-20.8Q12.01-20.36 11.96-20.12L11.96-20.12Q11.87-19.78 11.77-19.51 11.67-19.24 11.57-18.95L11.57-18.95Q10.94-17.04 10.42-15.09 9.91-13.13 9.23-11.18L9.23-11.18ZM46.14-36.43L46.14-36.43Q46.92-36.52 47.34-36.3 47.75-36.08 48.19-36.04L48.19-36.04Q48.44-35.99 48.7-36.01 48.97-36.04 49.27-36.04L49.27-36.04Q49.9-36.04 50.27-35.89 50.63-35.74 51.02-35.25L51.02-35.25Q51.12-35.16 51.29-34.99 51.46-34.81 51.46-34.67L51.46-34.67Q51.46-34.28 51.27-33.98 51.07-33.69 51.07-33.15L51.07-33.15Q51.07-32.32 51.27-31.52 51.46-30.71 51.51-29.88L51.51-29.88Q51.76-26.86 51.78-23.8 51.8-20.75 51.8-17.77L51.8-17.77Q51.8-17.38 51.78-17.07 51.76-16.75 51.56-16.5L51.56-16.5 51.56-15.87Q51.51-14.6 51.61-13.31 51.71-12.01 51.71-10.74L51.71-10.74Q51.71-9.62 51.58-8.5 51.46-7.37 51.46-6.2L51.46-6.2Q51.46-5.13 51.61-4.1 51.76-3.08 51.76-2L51.76-2Q51.51-1.56 51.46-1.32 51.41-1.07 51.27-0.88L51.27-0.88Q51.12-0.78 50.95-0.83 50.78-0.88 50.68-0.73L50.68-0.73Q50.44-0.44 50.34-0.05 50.24 0.34 49.85 0.59L49.85 0.59Q49.75 1.27 49.34 1.64 48.92 2 48.73 2.59L48.73 2.59Q48.14 2.64 47.92 2.54 47.7 2.44 47.46 2.34L47.46 2.34Q47.41 1.51 47.48 1.15 47.56 0.78 47.56 0.39L47.56 0.39Q47.56-0.1 47.31-0.34 47.07-0.59 46.97-0.98L46.97-0.98Q46.43-1.32 46.24-1.44 46.04-1.56 45.9-1.76L45.9-1.76Q45.6-2.15 45.41-2.59 45.21-3.03 44.97-3.42L44.97-3.42Q44.28-4.54 43.58-5.71 42.87-6.88 42.04-8.01L42.04-8.01Q41.89-8.25 41.7-8.45 41.5-8.64 41.35-8.89L41.35-8.89Q40.52-10.21 39.79-11.57 39.06-12.94 38.08-14.16L38.08-14.16Q37.69-14.65 37.5-15.26 37.3-15.87 36.91-16.31L36.91-16.31Q36.86-16.06 36.86-15.77 36.86-15.48 36.86-15.23L36.86-15.23Q36.86-13.57 36.94-11.94 37.01-10.3 37.01-8.64L37.01-8.64Q37.01-8.3 36.94-8.03 36.86-7.76 36.86-7.42L36.86-7.42Q36.86-6.93 36.91-6.49 36.96-6.05 36.96-5.62L36.96-5.62Q36.96-5.08 36.94-4.59 36.91-4.1 36.86-3.61L36.86-3.61Q36.77-2.98 36.62-2.42 36.47-1.86 36.47-1.27L36.47-1.27Q36.47-0.93 36.55-0.63 36.62-0.34 36.62-0.1L36.62-0.1Q36.28 0.44 35.76 0.44 35.25 0.44 34.91 0.83L34.91 0.83Q34.62 0.78 34.45 0.88 34.27 0.98 34.13 0.98L34.13 0.98Q33.93 0.98 33.81 0.93 33.69 0.88 33.54 0.88L33.54 0.88Q33.3 0.88 33.05 1.12 32.81 1.37 32.57 1.37L32.57 1.37Q32.42 1.37 32.05 1.17 31.69 0.98 31.27 0.71 30.86 0.44 30.52 0.17 30.17-0.1 30.17-0.24L30.17-0.24Q30.12-0.49 30.12-0.93L30.12-0.93Q30.12-1.51 30.2-2.08 30.27-2.64 30.37-3.22L30.37-3.22Q30.52-4.88 30.52-6.52 30.52-8.15 30.52-9.81L30.52-9.81Q30.52-10.5 30.54-11.18 30.56-11.87 30.56-12.55L30.56-12.55Q30.56-14.16 30.44-15.8 30.32-17.43 30.32-19.04L30.32-19.04Q30.32-20.17 30.42-21.26 30.52-22.36 30.52-23.44L30.52-23.44Q30.52-24.27 30.47-25.05 30.42-25.83 30.42-26.66L30.42-26.66Q30.37-27.2 30.42-27.81 30.47-28.42 30.47-28.96L30.47-28.96Q30.47-29.59 30.3-30.15 30.12-30.71 30.12-31.2L30.12-31.2Q30.12-31.49 30.25-31.76 30.37-32.03 30.37-32.32L30.37-32.32Q30.37-32.71 30.25-33.11 30.12-33.5 30.12-33.89L30.12-33.89Q30.12-34.28 30.22-34.62 30.32-34.96 30.32-35.35L30.32-35.35Q31-35.69 31.54-35.69L31.54-35.69Q32.08-35.69 32.32-35.3L32.32-35.3Q32.32-34.42 32.42-33.96 32.52-33.5 32.57-33.01L32.57-33.01Q32.57-32.71 32.54-32.32 32.52-31.93 32.57-31.57 32.61-31.2 32.79-30.96 32.96-30.71 33.4-30.71L33.4-30.71Q33.49-30.47 33.64-30.27 33.79-30.08 33.84-29.79L33.84-29.79Q34.13-29.98 34.18-30.32 34.23-30.66 34.18-30.96L34.18-30.96Q34.42-30.86 34.62-30.88 34.81-30.91 35.01-30.81L35.01-30.81Q35.1-30.13 35.25-29.61 35.4-29.1 35.35-28.42L35.35-28.42Q36.33-27.69 37.03-26.34 37.74-25 38.38-23.93L38.38-23.93Q38.72-23.39 39.18-22.92 39.65-22.46 39.89-21.83L39.89-21.83Q40.28-21.58 40.52-21.19 40.77-20.8 40.96-20.41L40.96-20.41Q41.94-18.7 43.11-17.09 44.28-15.48 45.55-13.92L45.55-13.92Q45.6-14.26 45.6-14.58 45.6-14.89 45.6-15.23L45.6-15.23 45.55-19.63Q45.55-20.02 45.53-20.36 45.51-20.7 45.46-21.09L45.46-21.09Q45.36-22.36 45.41-23.58 45.46-24.8 45.41-26.07L45.41-26.07Q45.31-27.39 45.29-28.76 45.26-30.13 45.16-31.49L45.16-31.49Q45.11-32.32 45.07-33.15 45.02-33.98 45.02-34.81L45.02-34.81Q45.02-35.84 45.21-36.67L45.21-36.67Q45.31-36.77 45.43-36.84 45.55-36.91 45.75-36.91L45.75-36.91Q46.04-36.91 46.14-36.43ZM65.47-33.2L65.47-33.2Q65.47-32.76 65.18-32.54 64.89-32.32 64.64-31.98L64.64-31.98Q64.16-31.54 63.79-31.08 63.42-30.62 62.93-30.18L62.93-30.18Q62.74-29.98 62.4-29.66 62.06-29.35 61.69-29.03 61.32-28.71 60.96-28.47 60.59-28.22 60.35-28.22L60.35-28.22Q59.96-28.22 59.35-28.49 58.74-28.76 58.3-28.86L58.3-28.86Q57.95-28.91 57.69-28.93 57.42-28.96 57.17-29.2L57.17-29.2Q56.29-29.39 56.05-29.81 55.81-30.22 55.51-30.66L55.51-30.66Q55.51-30.86 55.66-30.91 55.81-30.96 55.9-31.1L55.9-31.1Q56.39-31.74 56.73-32.15 57.08-32.57 57.51-33.01L57.51-33.01Q58.34-33.74 59.1-34.52 59.86-35.3 60.69-35.99L60.69-35.99Q61.08-36.04 61.27-36.28 61.47-36.52 61.86-36.52L61.86-36.52Q62.25-36.52 62.52-36.28 62.79-36.04 63.01-35.72 63.23-35.4 63.45-35.08 63.67-34.77 63.96-34.62L63.96-34.62Q64.3-34.38 64.89-33.98 65.47-33.59 65.47-33.2ZM58.78-24.12L58.78-24.12Q59.13-23.93 59.3-23.61 59.47-23.29 59.81-23.14L59.81-23.14Q60.1-23 60.44-23 60.79-23 61.03-22.9L61.03-22.9Q61.23-22.8 61.32-22.66 61.42-22.51 61.52-22.36L61.52-22.36Q61.81-22.12 62.42-21.92 63.03-21.73 63.23-21.48L63.23-21.48Q63.57-21.04 63.74-20.36 63.91-19.68 64.01-18.92 64.11-18.16 64.16-17.41 64.2-16.65 64.3-16.11L64.3-16.11Q64.4-14.99 64.55-13.89 64.69-12.79 64.69-11.67L64.69-11.67Q64.69-10.55 64.59-9.38 64.5-8.2 64.5-7.08L64.5-7.08Q64.5-6.49 64.47-5.62 64.45-4.74 64.06-4.25L64.06-4.25Q64.01-4.05 64.01-3.56L64.01-3.56 64.01-2Q64.01-1.71 64.06-1.42 64.11-1.12 64.11-0.78L64.11-0.78Q64.11-0.24 63.81 0L63.81 0Q63.67-0.05 63.5-0.05 63.33-0.05 63.18-0.05L63.18-0.05Q62.64-0.05 62.4 0.15L62.4 0.15Q61.86 0.1 61.37 0.05 60.88 0 60.35 0L60.35 0Q59.52 0 58.54 0.24L58.54 0.24Q58.34-0.24 58.37-0.78 58.39-1.32 58.15-1.76L58.15-1.76Q58.1-1.9 58.08-2.03 58.05-2.15 58.05-2.29L58.05-2.29Q58.2-2.88 58.2-3.1 58.2-3.32 58.2-3.56L58.2-3.56Q58.2-4.25 58.15-4.96 58.1-5.66 58.2-6.35L58.2-6.35Q58.2-6.59 58.27-6.79 58.34-6.98 58.34-7.23L58.34-7.23Q58.34-7.47 58.25-7.57 58.15-7.67 58.15-7.81L58.15-7.81Q58.15-7.96 58.17-8.3 58.2-8.64 58.3-8.74L58.3-8.74Q58.3-9.13 58.32-9.5 58.34-9.86 58.34-10.21L58.34-10.21Q58.34-10.99 58.3-11.77 58.25-12.55 58.25-13.28L58.25-13.28Q58.25-13.62 58.2-13.72 58.15-13.82 58.1-13.87 58.05-13.92 57.95-13.94 57.86-13.96 57.81-14.11L57.81-14.11Q58-16.26 57.66-18.41 57.32-20.56 57.32-22.75L57.32-22.75Q57.32-23.1 57.42-23.27 57.51-23.44 57.66-23.54 57.81-23.63 57.93-23.75 58.05-23.88 58.1-24.12L58.1-24.12Q58.49-24.02 58.78-24.12ZM104.39-0.15L104.39-0.15Q104.14 0.1 103.85 0.15 103.56 0.2 103.26 0.2L103.26 0.2Q102.53 0.54 101.7 0.54L101.7 0.54Q101.16 0.24 101.12 0.34 101.07 0.44 100.92 0.54L100.92 0.54Q100.19 0.88 99.6 0.9 99.02 0.93 98.63 1.17L98.63 1.17Q98.23 0.88 98.21 0.32 98.19-0.24 98.09-0.63L98.09-0.63Q97.84-0.98 97.75-1.49 97.65-2 97.6-2.54 97.55-3.08 97.48-3.59 97.4-4.1 97.21-4.49L97.21-4.49Q97.16-4.74 97.18-4.93 97.21-5.13 97.11-5.37L97.11-5.37Q97.16-6.2 97.06-6.69 96.97-7.18 96.87-7.71L96.87-7.71Q96.82-8.01 96.82-8.37 96.82-8.74 96.53-8.94L96.53-8.94Q96.67-9.62 96.57-9.96 96.48-10.3 96.43-10.6L96.43-10.6Q96.38-10.99 96.38-11.45 96.38-11.91 96.28-12.3L96.28-12.3Q95.99-14.65 95.65-16.99 95.31-19.34 95.01-21.68L95.01-21.68Q94.72-21.44 94.6-20.95 94.47-20.46 94.38-20.07L94.38-20.07Q94.08-19.19 93.84-18.26 93.6-17.33 93.35-16.46L93.35-16.46Q93.25-16.06 93.18-15.55 93.11-15.04 92.96-14.65L92.96-14.65Q92.47-13.23 92.11-12.21 91.74-11.18 91.4-10.11L91.4-10.11Q91.3-9.52 91.2-8.98 91.11-8.45 91.01-7.91L91.01-7.91Q90.96-7.62 90.86-7.08 90.76-6.54 90.67-6.3L90.67-6.3Q90.57-6.05 90.5-5.96 90.42-5.86 90.47-5.62L90.47-5.62Q89.98-4.88 89.81-4 89.64-3.13 89.2-2.29L89.2-2.29Q89.2-1.71 88.76-1.27L88.76-1.27Q88.52-1.22 88.3-1.17 88.08-1.12 87.83-0.98L87.83-0.98Q87.59-1.07 87.27-1.1 86.96-1.12 86.66-1.12L86.66-1.12Q86.42-1.17 86.22-1.29 86.03-1.42 85.78-1.46L85.78-1.46Q85.54-1.76 85.25-1.98 84.95-2.2 84.66-2.44L84.66-2.44Q84.37-3.17 84.12-3.42L84.12-3.42Q83.98-3.96 83.73-4.42 83.49-4.88 83.39-5.47L83.39-5.47Q83.24-6.01 83.02-6.47 82.81-6.93 82.56-7.47L82.56-7.47Q82.46-7.81 82.34-8.13 82.22-8.45 82.07-8.79L82.07-8.79Q82.02-9.18 81.8-9.77 81.58-10.35 81.49-10.79L81.49-10.79Q81.49-10.84 81.32-11.3 81.14-11.77 80.97-12.3 80.8-12.84 80.63-13.28 80.46-13.72 80.41-13.77L80.41-13.77Q80.31-14.01 80.24-14.23 80.17-14.45 80.07-14.75L80.07-14.75Q79.88-15.38 79.58-16.04 79.29-16.7 79-17.29L79-17.29Q78.75-17.77 78.65-18.24 78.56-18.7 78.41-19.14L78.41-19.14Q78.31-19.38 78.24-19.58 78.17-19.78 78.07-20.02L78.07-20.02Q77.97-20.31 77.87-20.63 77.78-20.95 77.68-21.29L77.68-21.29Q77.43-21.19 77.46-20.87 77.48-20.56 77.43-20.31L77.43-20.31Q77.34-19.78 77.34-19.26 77.34-18.75 77.29-18.21L77.29-18.21Q77.19-17.63 77.09-17.09 76.99-16.55 76.95-16.02L76.95-16.02Q76.95-14.7 76.8-13.38L76.8-13.38Q76.7-12.21 76.56-11.01 76.41-9.81 76.36-8.54L76.36-8.54Q76.36-7.62 76.16-6.71 75.97-5.81 76.07-4.83L76.07-4.83Q75.97-4.64 75.97-4.54 75.97-4.44 75.97-4.25L75.97-4.25Q75.97-4 75.94-3.71 75.92-3.42 75.92-3.17L75.92-3.17Q75.92-2.73 76.02-2.59L76.02-2.59Q75.87-2.15 75.87-1.64 75.87-1.12 75.87-0.63L75.87-0.63Q75.77-0.44 75.75-0.24 75.72-0.05 75.58 0.15L75.58 0.15Q75.63 0.98 75.09 0.98L75.09 0.98Q74.94 0.98 74.77 0.9 74.6 0.83 74.5 0.68L74.5 0.68Q73.97 0.73 73.89 0.44 73.82 0.15 73.58 0.2L73.58 0.2Q72.99 0.44 72.92 0.34 72.84 0.24 72.6 0.29L72.6 0.29Q72.21-0.1 72.09-0.05 71.97 0 71.87 0L71.87 0Q71.43-0.15 71.38-0.07 71.33 0 71.18 0L71.18 0Q70.94-0.24 70.52-0.24 70.11-0.24 69.82-0.29L69.82-0.29Q69.77-0.49 69.74-0.66 69.72-0.83 69.72-1.07L69.72-1.07Q69.72-1.37 69.74-1.64 69.77-1.9 69.77-2.2L69.77-2.2Q69.77-2.44 69.74-2.71 69.72-2.98 69.72-3.32L69.72-3.32Q69.72-3.66 69.77-3.98 69.82-4.3 69.82-4.69L69.82-4.69Q69.82-4.83 69.77-4.96 69.72-5.08 69.72-5.27L69.72-5.27Q70.01-5.91 69.99-6.27 69.96-6.64 70.01-6.98L70.01-6.98Q70.11-7.81 70.18-8.62 70.26-9.42 70.35-10.25L70.35-10.25Q70.35-11.62 70.43-12.52 70.5-13.43 70.65-14.36L70.65-14.36Q70.74-14.79 70.82-15.19 70.89-15.58 70.99-16.02L70.99-16.02Q71.09-16.75 71.11-17.55 71.14-18.36 71.23-19.14L71.23-19.14Q71.33-20.36 71.48-21.56 71.62-22.75 71.72-23.93L71.72-23.93Q71.82-24.85 71.94-25.76 72.06-26.66 72.06-27.49L72.06-27.49Q72.06-27.93 72.18-28.61 72.31-29.3 72.36-29.79L72.36-29.79Q72.45-30.96 72.53-32.08 72.6-33.2 72.6-34.33L72.6-34.33 72.6-34.86Q72.6-34.96 72.7-35.06 72.8-35.16 72.8-35.4L72.8-35.4Q72.8-35.84 73.01-36.01 73.23-36.18 73.38-36.57L73.38-36.57Q73.63-36.57 73.94-36.52 74.26-36.47 74.41-36.23L74.41-36.23Q74.75-36.33 75.09-36.33 75.43-36.33 75.68-36.57L75.68-36.57Q75.97-36.57 76.12-36.43 76.26-36.28 76.51-36.18L76.51-36.18Q76.7-36.28 76.9-36.35 77.09-36.43 77.29-36.52L77.29-36.52Q77.43-36.43 77.51-36.3 77.58-36.18 77.73-36.13L77.73-36.13Q78.46-36.33 78.7-36.18L78.7-36.18Q78.8-35.99 78.83-35.79 78.85-35.6 78.9-35.4L78.9-35.4Q79.39-34.91 79.53-34.3 79.68-33.69 80.07-33.2L80.07-33.2Q80.17-32.91 80.29-32.62 80.41-32.32 80.51-31.93L80.51-31.93 80.66-31.35Q80.85-30.86 81.14-30.18L81.14-30.18Q81.39-29.25 81.58-28.27 81.78-27.29 82.22-26.46L82.22-26.46Q82.27-26.17 82.39-25.76 82.51-25.34 82.61-25.05L82.61-25.05Q82.95-24.22 83.32-23.41 83.68-22.61 83.98-21.68L83.98-21.68Q84.27-20.75 84.49-19.78 84.71-18.8 85.05-17.87L85.05-17.87Q85.34-16.99 85.49-16.6 85.64-16.21 85.88-15.82L85.88-15.82Q85.88-15.67 85.95-15.33 86.03-14.99 86.17-14.62 86.32-14.26 86.47-13.94 86.61-13.62 86.76-13.57L86.76-13.57Q86.91-13.67 86.93-13.87 86.96-14.06 87.1-14.21L87.1-14.21Q87.15-14.75 87.27-15.53 87.39-16.31 87.64-16.8L87.64-16.8Q87.64-17.04 87.76-17.7 87.88-18.36 88.08-19.12 88.27-19.87 88.44-20.51 88.62-21.14 88.76-21.29L88.76-21.29Q88.86-21.92 88.93-22.07 89.01-22.22 89.1-22.31L89.1-22.31Q89.15-22.71 89.3-23.05 89.45-23.39 89.49-23.78L89.49-23.78Q89.59-24.61 89.74-25.15 89.89-25.68 90.13-26.46L90.13-26.46Q90.32-27.15 90.5-27.86 90.67-28.56 90.91-29.25L90.91-29.25Q91.5-31.1 91.96-32.54 92.42-33.98 93.11-35.35L93.11-35.35Q93.25-35.79 93.35-35.89 93.45-35.99 93.55-36.08L93.55-36.08Q93.94-36.23 94.35-36.23 94.77-36.23 95.21-36.18L95.21-36.18Q95.7-36.38 95.94-36.62L95.94-36.62Q96.14-36.38 96.53-36.38L96.53-36.38Q97.01-36.38 97.21-36.67L97.21-36.67Q97.4-36.57 97.53-36.62 97.65-36.67 97.89-36.57L97.89-36.57Q97.99-36.67 98.14-36.79 98.28-36.91 98.43-36.91L98.43-36.91Q98.82-36.43 99.04-36.16 99.26-35.89 99.36-35.55L99.36-35.55Q99.5-35.11 99.53-34.59 99.55-34.08 99.8-33.64L99.8-33.64Q99.75-33.01 99.87-31.71 99.99-30.42 100.16-28.98 100.33-27.54 100.53-26.32 100.72-25.1 100.87-24.8L100.87-24.8Q100.82-24.17 100.92-23.73 101.02-23.29 101.02-22.85L101.02-22.85Q101.02-22.71 101.07-22.24 101.12-21.78 101.16-21.26 101.21-20.75 101.29-20.29 101.36-19.82 101.41-19.63L101.41-19.63Q101.41-18.75 101.7-18.26L101.7-18.26Q101.95-17.04 102.12-15.82 102.29-14.6 102.43-13.33L102.43-13.33Q102.53-12.7 102.56-12.11 102.58-11.52 102.68-10.89L102.68-10.89Q102.73-10.64 102.8-10.4 102.87-10.16 102.92-9.91L102.92-9.91Q103.02-9.42 103.07-8.98 103.12-8.54 103.22-8.11L103.22-8.11Q103.26-7.86 103.36-7.59 103.46-7.32 103.36-7.03L103.36-7.03Q103.46-6.69 103.43-6.3 103.41-5.91 103.61-5.62L103.61-5.62Q103.61-4.59 103.75-3.81L103.75-3.81Q103.8-3.22 104.05-2.64L104.05-2.64Q104.14-2.05 104.22-1.42 104.29-0.78 104.39-0.15ZM116.01-12.79L116.01-12.79Q116.1-12.55 116.71-11.77 117.32-10.99 118.11-10.06 118.89-9.13 119.59-8.28 120.3-7.42 120.6-7.03L120.6-7.03Q121.13-6.35 121.65-5.69 122.16-5.03 122.6-4.3L122.6-4.3 123.48-2.83Q123.87-2.34 124.18-2 124.5-1.66 124.7-1.07L124.7-1.07Q124.79-0.68 124.79-0.54L124.79-0.54Q124.79-0.2 124.55-0.05L124.55-0.05Q124.16-0.05 124.14 0.07 124.11 0.2 123.92 0.29L123.92 0.29Q123.72 0.39 123.31 0.42 122.89 0.44 122.65 0.44L122.65 0.44Q122.21 0.44 121.55 0.42 120.89 0.39 120.5 0.54L120.5 0.54Q120.4 0.59 120.2 0.68 120.01 0.78 119.91 0.78L119.91 0.78Q119.52 0.78 119.35 0.66 119.18 0.54 118.89 0.49L118.89 0.49Q118.5 0.05 118.23-0.42 117.96-0.88 117.62-1.37L117.62-1.37Q117.28-1.71 116.93-1.98 116.59-2.25 116.35-2.59L116.35-2.59Q115.62-3.66 114.83-4.69 114.05-5.71 113.22-6.69L113.22-6.69Q112.83-7.23 112.39-7.67 111.95-8.11 111.56-8.64L111.56-8.64Q111.17-9.13 110.83-9.69 110.49-10.25 110.15-10.79L110.15-10.79Q109.85-11.23 109.37-11.94 108.88-12.65 108.29-13.35 107.7-14.06 107.12-14.7 106.53-15.33 106.14-15.67L106.14-15.67Q106.09-15.97 105.9-16.14 105.7-16.31 105.46-16.46L105.46-16.46Q105.36-16.7 105.24-16.92 105.12-17.14 105.12-17.38L105.12-17.38Q105.12-17.72 105.26-18.02L105.26-18.02Q105.36-18.21 105.39-18.38 105.41-18.55 105.51-18.75L105.51-18.75Q105.75-19.29 106.17-19.8 106.58-20.31 106.83-20.9L106.83-20.9Q106.92-21.04 106.92-21.22 106.92-21.39 107.02-21.53L107.02-21.53Q107.12-21.92 107.44-22.19 107.75-22.46 107.95-22.8L107.95-22.8Q108.19-23.19 108.41-23.61 108.63-24.02 108.88-24.51L108.88-24.51Q109.61-25.73 110.41-26.88 111.22-28.03 112.05-29.2L112.05-29.2Q112.69-30.18 113.3-31.08 113.91-31.98 114.54-32.91L114.54-32.91Q114.88-33.35 115.27-33.94 115.66-34.52 116.13-35.11 116.59-35.69 117.08-36.18 117.57-36.67 118.06-36.96L118.06-36.96Q118.79-37.01 119.03-36.65 119.28-36.28 119.77-36.28L119.77-36.28Q120.4-36.13 120.6-35.89 120.79-35.64 121.03-35.4L121.03-35.4Q121.72-35.4 122.13-35.16 122.55-34.91 122.94-34.42L122.94-34.42Q122.79-33.89 122.5-33.47 122.21-33.06 121.96-32.62L121.96-32.62Q121.57-32.42 121.4-32.08 121.23-31.74 120.89-31.54L120.89-31.54Q120.4-30.71 119.86-29.96 119.33-29.2 118.79-28.47L118.79-28.47Q118.5-28.03 118.18-27.69 117.86-27.34 117.62-26.95L117.62-26.95Q117.52-26.81 117.45-26.64 117.37-26.46 117.28-26.32L117.28-26.32Q116.69-25.39 116.01-24.58 115.32-23.78 114.74-22.8L114.74-22.8Q114.54-22.46 114.42-22.09 114.3-21.73 114.1-21.39L114.1-21.39Q113.91-21.09 113.54-20.61 113.17-20.12 112.83-19.56 112.49-18.99 112.22-18.48 111.95-17.97 111.95-17.63L111.95-17.63Q112-17.38 112.56-16.67 113.12-15.97 113.83-15.16 114.54-14.36 115.18-13.65 115.81-12.94 116.01-12.79ZM119.23-21.68L119.23-21.68Q119.57-20.95 119.96-20.41L119.96-20.41Q120.11-20.21 120.3-20.07 120.5-19.92 120.6-19.68L120.6-19.68Q120.69-19.58 120.79-19.26 120.89-18.95 120.99-18.8L120.99-18.8Q121.13-18.41 121.57-17.92 122.01-17.43 122.01-17.04L122.01-17.04Q122.01-16.8 121.91-16.5 121.82-16.21 121.77-15.97L121.77-15.97Q121.72-15.67 121.72-15.36 121.72-15.04 121.52-14.79L121.52-14.79Q121.28-14.55 120.99-14.5 120.69-14.45 120.45-14.26L120.45-14.26Q120.35-14.16 120.16-13.92 119.96-13.67 119.77-13.38 119.57-13.09 119.4-12.82 119.23-12.55 119.23-12.4L119.23-12.4Q118.64-12.35 118.47-12.38 118.3-12.4 118.11-12.35L118.11-12.35Q117.86-12.6 117.59-12.77 117.32-12.94 116.93-13.09L116.93-13.09Q116.84-13.48 116.49-13.99 116.15-14.5 115.91-14.84L115.91-14.84 115.57-15.28Q114.83-16.31 114.22-17.26 113.61-18.21 113.32-19.38L113.32-19.38Q114.25-20.07 114.76-20.41 115.27-20.75 115.86-21.04 116.45-21.34 117.01-21.61 117.57-21.88 118.06-22.27L118.06-22.27Q118.45-22.27 118.59-22.22 118.74-22.17 118.79-22.12 118.84-22.07 118.91-21.95 118.98-21.83 119.23-21.68ZM147.79-5.86L147.79-5.86Q147.3-5.81 147.2-5.91L147.2-5.91Q147.01-5.81 146.84-5.71 146.67-5.62 146.47-5.47L146.47-5.47Q145.79-5.22 145.13-4.83 144.47-4.44 143.79-4.1L143.79-4.1Q143.4-3.91 143.03-3.78 142.66-3.66 142.27-3.47L142.27-3.47Q141.69-3.17 141.1-2.86 140.51-2.54 139.88-2.29L139.88-2.29Q139.54-2.2 139.22-2.1 138.9-2 138.56-1.9L138.56-1.9Q138.17-1.76 137.85-1.59 137.54-1.42 137.19-1.27L137.19-1.27Q136.95-1.17 136.68-1.1 136.41-1.03 136.12-0.88L136.12-0.88Q135.88-0.78 135.71-0.63 135.53-0.49 135.29-0.39L135.29-0.39Q134.9-0.24 134.48-0.1 134.07 0.05 133.68 0.24L133.68 0.24Q133.29 0.44 133.12 0.61 132.95 0.78 132.46 0.93L132.46 0.93Q131.97 1.22 131.92 1.25 131.87 1.27 131.77 1.27L131.77 1.27Q131.63 1.37 131.51 1.44 131.38 1.51 131.24 1.61L131.24 1.61Q130.94 1.61 130.65 1.66 130.36 1.71 130.07 1.71L130.07 1.71Q129.72 1.51 129.6 1.32 129.48 1.12 129.48 0.78L129.48 0.78Q129.28 0.54 129.11 0.24 128.94-0.05 128.75-0.29L128.75-0.29Q128.41-0.1 128.33-0.32 128.26-0.54 128.21-0.81 128.16-1.07 128.11-1.34 128.06-1.61 128.01-1.71L128.01-1.71Q127.77-2.64 127.77-3.08L127.77-3.08Q127.77-3.32 127.87-3.39 127.97-3.47 127.97-3.61L127.97-3.61Q128.01-4.1 128.06-4.74 128.11-5.37 128.11-6.05 128.11-6.74 128.11-7.42 128.11-8.11 128.11-8.64L128.11-8.64Q128.11-10.84 128.06-12.92 128.01-14.99 128.01-17.09L128.01-17.09Q128.01-18.07 128.06-19.04 128.11-20.02 128.11-21L128.11-21Q128.11-23.39 128.19-25.73 128.26-28.08 128.26-30.47L128.26-30.47Q128.26-31.45 128.16-32.45 128.06-33.45 128.01-34.47L128.01-34.47Q127.97-35.01 128.06-35.33 128.16-35.64 128.11-35.99L128.11-35.99Q128.26-36.04 128.65-36.04 129.04-36.04 129.46-36.06 129.87-36.08 130.24-36.11 130.6-36.13 130.7-36.18L130.7-36.18Q131.04-35.94 131.38-35.94L131.38-35.94Q131.73-35.94 132.02-36.23L132.02-36.23Q132.26-36.13 132.29-36.08 132.31-36.04 132.56-36.04L132.56-36.04Q133-36.08 133.24-36.11 133.48-36.13 133.68-36.13L133.68-36.13Q134.22-35.74 134.34-35.18 134.46-34.62 134.51-34.01 134.56-33.4 134.58-32.79 134.61-32.18 134.61-31.79L134.61-31.79Q134.61-31.49 134.66-31.18 134.7-30.86 134.7-30.52L134.7-30.52Q134.7-30.27 134.68-30.03 134.66-29.79 134.66-29.54L134.66-29.54Q134.66-28.13 134.68-26.66 134.7-25.2 134.7-23.78L134.7-23.78Q134.7-21.24 134.63-18.68 134.56-16.11 134.56-13.57L134.56-13.57Q134.56-13.04 134.61-12.5 134.66-11.96 134.66-11.43L134.66-11.43Q134.66-11.13 134.63-10.84 134.61-10.55 134.61-10.25L134.61-10.25Q134.61-8.45 134.75-6.64L134.75-6.64Q134.95-6.69 135.58-6.91 136.22-7.13 136.9-7.4 137.59-7.67 138.17-7.93 138.76-8.2 138.9-8.35L138.9-8.35Q139.1-8.35 139.44-8.5 139.78-8.64 140.17-8.86 140.56-9.08 140.93-9.28 141.3-9.47 141.44-9.62L141.44-9.62Q141.39-10.6 141.39-11.6 141.39-12.6 141.39-13.57L141.39-13.57Q141.39-16.26 141.47-18.95 141.54-21.63 141.54-24.41L141.54-24.41Q141.54-26.12 141.49-27.83 141.44-29.54 141.44-31.25L141.44-31.25Q141.44-31.79 141.47-32.35 141.49-32.91 141.49-33.45L141.49-33.45Q141.49-34.28 141.47-35.08 141.44-35.89 141.54-36.72L141.54-36.72Q142.03-36.96 142.08-36.96L142.08-36.96Q142.37-36.96 142.49-36.96 142.61-36.96 142.71-36.87L142.71-36.87Q142.86-36.82 142.98-36.84 143.1-36.87 143.25-36.87L143.25-36.87Q143.49-36.87 143.74-36.77 143.98-36.67 144.23-36.67L144.23-36.67Q144.62-36.72 144.64-36.57 144.67-36.43 144.81-36.43L144.81-36.43Q145.2-36.57 145.35-36.43L145.35-36.43Q145.5-36.33 145.89-36.16 146.28-35.99 146.72-35.79 147.16-35.6 147.5-35.42 147.84-35.25 147.84-35.11L147.84-35.11Q147.99-34.33 147.94-33.45 147.89-32.57 147.89-31.79L147.89-31.79Q147.89-31.1 147.94-30.42 147.99-29.74 147.99-29.05L147.99-29.05Q147.99-28.66 147.99-28.27 147.99-27.88 148.03-27.54L148.03-27.54Q148.08-27.29 148.08-27.12 148.08-26.95 148.08-26.76L148.08-26.76Q148.08-26.51 148.18-26.12L148.18-26.12Q148.13-25.88 148.13-25.61 148.13-25.34 148.13-25.1L148.13-25.1Q148.13-24.41 148.18-23.68 148.23-22.95 148.23-22.22L148.23-22.22Q148.23-21.73 148.16-21.29 148.08-20.85 148.08-20.41L148.08-20.41 148.13-19.48Q148.13-18.99 148.18-18.51 148.23-18.02 148.23-17.48L148.23-17.48Q148.23-17.24 148.21-16.99 148.18-16.75 148.13-16.5L148.13-16.5Q148.08-16.26 148.08-15.97 148.08-15.67 148.08-15.43L148.08-15.43Q148.08-14.75 148.13-14.06 148.18-13.38 148.18-12.7L148.18-12.7Q148.18-12.26 148.16-11.84 148.13-11.43 148.13-10.99L148.13-10.99Q148.13-10.11 148.21-9.18 148.28-8.25 148.28-7.37L148.28-7.37Q148.28-6.98 148.18-6.54 148.08-6.1 147.79-5.86Z" opacity="1" transform="matrix(1,0,0,1,0,0)" fill="#f9cc0b" class="wordmark-text-0" data-fill-palette-color="primary" id="text-0"></path></svg></g></svg></g></svg></g></svg></g><g transform="matrix(1,0,0,1,420.4439225828441,0)"><svg viewBox="0 0 145.90581426951715 145.90581426951715" height="145.90581426951715" width="145.90581426951715"><g data-palette-color="#f9f9f9"><rect width="39.880922567001356" height="145.90581426951715" fill="#f9f9f9" stroke="transparent" data-fill-palette-color="accent" x="0" fill-opacity="1"></rect><rect width="39.880922567001356" height="145.90581426951715" fill="#f9f9f9" stroke="transparent" data-fill-palette-color="accent" x="48.635271423172384" fill-opacity="0.75"></rect><rect width="39.880922567001356" height="145.90581426951715" fill="#f9f9f9" stroke="transparent" data-fill-palette-color="accent" x="97.27054284634477" fill-opacity="0.5"></rect></g></svg></g></svg></g></svg></g></svg></g><defs></defs></svg><rect width="395.52" height="247.2" fill="none" stroke="none" visibility="hidden"></rect></g></svg></g></svg>